# xmcd
#
# Track frame offsets: 
#        150
#        10900
#        33635
#        48420
#        60595
#        75927
#        88604
#        101026
#        118256
#        133468
#        147990
#
# Disc length: 2283 seconds
#
# Revision: 0
# Processed by: cddbd v1.5.2PL0 Copyright (c) Steve Scherf et al.
# Submitted via: ExactAudioCopy v1.0b4
#
DISCID=9708e90b
DTITLE=Morry Sochat and The Special 20s - Dig In
DYEAR=2015
DGENRE=Blues
TTITLE0=Pine Box
TTITLE1=Little Melody
TTITLE2=Rodeo Gal
TTITLE3=Big Red Rooster
TTITLE4=Mary Jane
TTITLE5=The Last Time
TTITLE6=I've Got What It Takes
TTITLE7=Baddest Cat Alive
TTITLE8=As Long As You're By My Side
TTITLE9=She's Got It
TTITLE10=The Honeydripper
EXTD=
EXTT0=
EXTT1=
EXTT2=
EXTT3=
EXTT4=
EXTT5=
EXTT6=
EXTT7=
EXTT8=
EXTT9=
EXTT10=
PLAYORDER=
